<svg viewBox="0 0 32 32" fill="none" xmlns="http://www.w3.org/2000/svg">
<g opacity="0.9">
<path d="M18.39 11.89C18.33 11.92 18.24 11.92 18.19 11.89L17.86 11.69C17.83 11.67 17.81 11.65 17.79 11.62C17.77 11.58 17.76 11.55 17.76 11.52L17.75 11.14C17.75 11.08 17.79 11 17.85 10.96L21.78 8.67L16.26 5.67C16.2 5.64 16.12 5.62 16.04 5.62C15.96 5.62 15.88 5.64 15.82 5.67L10.3 8.67L16.48 12.27C16.54 12.3 16.58 12.37 16.58 12.44V17.69C16.58 17.75 16.53 17.83 16.48 17.86L16.15 18.05C16.12 18.06 16.09 18.07 16.05 18.07C16.05 18.07 16.05 18.07 16.04 18.07C16 18.07 15.96 18.06 15.93 18.05L15.6 17.86C15.54 17.83 15.5 17.75 15.5 17.69V13.01C15.5 12.97 15.47 12.93 15.44 12.92L10 9.74V15.95C10 16.09 10.1 16.26 10.22 16.33L15.83 19.64C15.89 19.68 15.97 19.69 16.05 19.69C16.13 19.69 16.21 19.67 16.27 19.64L21.88 16.33C22 16.26 22.1 16.09 22.1 15.95V9.74L18.39 11.89Z" fill="url(#paint0_linear_356_594)"/>
<path d="M25.4031 24.7341C25.4031 25.3127 25.0627 25.6676 24.5927 25.6676C24.1224 25.6676 23.7824 25.3127 23.7824 24.7341C23.7824 24.1554 24.1224 23.801 24.5927 23.801C25.0627 23.801 25.4031 24.1554 25.4031 24.7341ZM22.907 24.7341C22.907 25.7398 23.6304 26.4202 24.5927 26.4202C25.5551 26.4202 26.2857 25.7398 26.2857 24.7341C26.2857 23.7284 25.5551 23.0483 24.5927 23.0483C23.6304 23.0483 22.907 23.7284 22.907 24.7341ZM26.6096 26.1235C26.8699 26.2895 27.2677 26.3841 27.6582 26.3841C28.4109 26.3841 28.939 26.0657 28.939 25.3636C28.939 24.785 28.657 24.4666 27.825 24.3143C27.5207 24.2421 27.4052 24.1554 27.4052 23.989C27.4052 23.8371 27.5283 23.7143 27.8178 23.7143C28.1502 23.7143 28.4322 23.8226 28.7365 24.0251V23.2512C28.4542 23.092 28.1719 23.0122 27.7886 23.0122C27.094 23.0122 26.5587 23.3378 26.5587 24.0468C26.5587 24.633 26.8626 24.9225 27.5929 25.0528C27.9481 25.1254 28.0853 25.2048 28.0853 25.4001C28.0853 25.6026 27.9044 25.682 27.6369 25.682C27.3182 25.682 26.9135 25.5448 26.6096 25.3206V26.1235ZM7.89548 23.0483C7.05621 23.0483 6.51367 23.3595 6.51367 24.3215V26.348H7.38903V24.38C7.38903 24.0179 7.58398 23.8298 7.96046 23.8298C8.17054 23.8298 8.38714 23.8577 8.56799 23.9155V23.1064C8.33626 23.069 8.10521 23.0483 7.89548 23.0483ZM18.0825 24.7341C18.0825 25.3127 17.7425 25.6676 17.2721 25.6676C16.8018 25.6676 16.4618 25.3127 16.4618 24.7341C16.4618 24.1554 16.8018 23.801 17.2721 23.801C17.7425 23.801 18.0825 24.1554 18.0825 24.7341ZM15.5864 24.7341C15.5864 25.7398 16.3098 26.4202 17.2721 26.4202C18.2345 26.4202 18.9651 25.7398 18.9651 24.7341C18.9651 23.7284 18.2345 23.0483 17.2721 23.0483C16.3098 23.0483 15.5864 23.7284 15.5864 24.7341ZM12.3015 26.348H13.1697V23.9237C13.3505 23.8659 13.5678 23.8298 13.7772 23.8298C14.154 23.8298 14.349 24.0179 14.349 24.38V26.348H15.2247V24.3215C15.2247 23.3595 14.6818 23.0483 13.8425 23.0483C13.3581 23.0483 12.7574 23.157 12.3015 23.3306V26.348ZM11.0139 24.7341C11.0139 25.3127 10.6739 25.6676 10.2035 25.6676C9.7332 25.6676 9.39316 25.3127 9.39316 24.7341C9.39316 24.1554 9.7332 23.801 10.2035 23.801C10.6739 23.801 11.0139 24.1554 11.0139 24.7341ZM8.51745 24.7341C8.51745 25.7398 9.24119 26.4202 10.2035 26.4202C11.1655 26.4202 11.8965 25.7398 11.8965 24.7341C11.8965 23.7284 11.1655 23.0483 10.2035 23.0483C9.24119 23.0483 8.51745 23.7284 8.51745 24.7341ZM3.08956 26.348H3.95771V23.9237C4.13134 23.8591 4.35551 23.8298 4.56524 23.8298C4.94172 23.8298 5.13701 24.0179 5.13701 24.38V26.348H6.01238V24.3215C6.01238 23.3667 5.45539 23.0483 4.75365 23.0483C4.4064 23.0483 4.10968 23.1281 3.95771 23.1859V21.65H3.08956V26.348ZM2.61922 23.287C2.34451 23.1209 2.06945 23.0483 1.70019 23.0483C0.71652 23.0483 0 23.7212 0 24.7417C0 25.7545 0.66598 26.4202 1.70775 26.4202C2.04057 26.4202 2.35861 26.3549 2.6481 26.1812V25.3636C2.40227 25.552 2.13478 25.6531 1.83084 25.6531C1.24463 25.6531 0.875367 25.2766 0.875367 24.7269C0.875367 24.1479 1.25907 23.8154 1.79474 23.8154C2.09111 23.8154 2.35173 23.8952 2.61922 24.1118V23.287ZM30.8166 25.6545C30.4425 25.6545 30.2486 25.4675 30.2486 25.1078V23.8408H31.3832V23.1219H30.2486V21.9261H29.3784V25.1656C29.3784 26.1217 29.9178 26.4312 30.7519 26.4312C30.9599 26.4312 31.1903 26.4106 31.4207 26.3738V25.5696C31.2408 25.627 31.0249 25.6545 30.8166 25.6545ZM20.2139 27.65H19.3371V23.31C19.6851 23.1652 20.2139 23.0418 20.7502 23.0418C21.8078 23.0418 22.5254 23.6431 22.5254 24.6646C22.5254 25.7879 21.8515 26.4181 20.7286 26.4181C20.7138 26.4181 20.6993 26.4174 20.6849 26.4174V25.6566C21.2316 25.6493 21.6411 25.3516 21.6411 24.6935C21.6411 24.1362 21.2714 23.824 20.7358 23.824C20.5618 23.824 20.3589 23.846 20.2139 23.9041" fill="#3C3C3B"/>
</g>
<defs>
<linearGradient id="paint0_linear_356_594" x1="21.9622" y1="8.95243" x2="10.1378" y2="16.2925" gradientUnits="userSpaceOnUse">
<stop stop-color="#08B2EB"/>
<stop offset="0.1895" stop-color="#08AFEC"/>
<stop offset="0.4371" stop-color="#07A2EF"/>
<stop offset="0.717" stop-color="#0689F4"/>
<stop offset="1" stop-color="#056FFA"/>
</linearGradient>
</defs>
</svg>
