<svg viewBox="0 0 32 32" fill="none" xmlns="http://www.w3.org/2000/svg">
<path d="M17.39 11.89C17.33 11.92 17.24 11.92 17.19 11.89L16.86 11.69C16.83 11.67 16.81 11.65 16.79 11.62C16.77 11.58 16.76 11.55 16.76 11.52L16.75 11.14C16.75 11.08 16.79 11 16.85 10.96L20.78 8.67L15.26 5.67C15.2 5.64 15.12 5.62 15.04 5.62C14.96 5.62 14.88 5.64 14.82 5.67L9.3 8.67L15.48 12.27C15.54 12.3 15.58 12.37 15.58 12.44V17.69C15.58 17.75 15.53 17.83 15.48 17.86L15.15 18.05C15.12 18.06 15.09 18.07 15.05 18.07C15.05 18.07 15.05 18.07 15.04 18.07C15 18.07 14.96 18.06 14.93 18.05L14.6 17.86C14.54 17.83 14.5 17.75 14.5 17.69V13.01C14.5 12.97 14.47 12.93 14.44 12.92L9 9.74V15.95C9 16.09 9.1 16.26 9.22 16.33L14.83 19.64C14.89 19.68 14.97 19.69 15.05 19.69C15.13 19.69 15.21 19.67 15.27 19.64L20.88 16.33C21 16.26 21.1 16.09 21.1 15.95V9.74L17.39 11.89Z" fill="url(#paint0_linear_356_580)"/>
<path d="M5.62 23.28C5.34 23.11 5.07 23.04 4.7 23.04C3.72 23.04 3 23.71 3 24.73C3 25.74 3.67 26.41 4.71 26.41C5.04 26.41 5.36 26.35 5.65 26.17V25.35C5.4 25.54 5.13 25.64 4.83 25.64C4.25 25.64 3.88 25.26 3.88 24.71C3.88 24.13 4.26 23.8 4.8 23.8C5.1 23.8 5.36 23.88 5.62 24.1V23.28Z" fill="#3C3C3B"/>
<path d="M10.9398 25.6C10.6198 25.57 10.4598 25.39 10.4598 25.06V21.65H9.58984V25.12C9.58984 26.07 10.1198 26.38 10.9398 26.38V25.6Z" fill="#3C3C3B"/>
<path d="M7.56012 23.04C6.60012 23.04 5.87012 23.72 5.87012 24.72C5.87012 25.73 6.59012 26.41 7.56012 26.41C8.52012 26.41 9.25012 25.73 9.25012 24.72C9.25012 23.72 8.52012 23.04 7.56012 23.04ZM7.56012 25.66C7.09012 25.66 6.75012 25.3 6.75012 24.72C6.75012 24.14 7.09012 23.79 7.56012 23.79C8.03012 23.79 8.37012 24.14 8.37012 24.72C8.37012 25.3 8.03012 25.66 7.56012 25.66Z" fill="#3C3C3B"/>
<path d="M12.7504 26.11C13.0104 26.28 13.4104 26.37 13.8004 26.37C14.5504 26.37 15.0804 26.05 15.0804 25.35C15.0804 24.77 14.8004 24.45 13.9704 24.3C13.6704 24.23 13.5504 24.14 13.5504 23.97C13.5504 23.82 13.6704 23.7 13.9604 23.7C14.2904 23.7 14.5704 23.81 14.8804 24.01V23.24C14.5904 23.08 14.3104 23 13.9204 23C13.2304 23 12.6904 23.33 12.6904 24.03C12.6904 24.62 13.0004 24.91 13.7304 25.04C14.0804 25.11 14.2204 25.19 14.2204 25.39C14.2204 25.59 14.0404 25.67 13.7704 25.67C13.4504 25.67 13.0404 25.53 12.7404 25.31V26.11H12.7504Z" fill="#3C3C3B"/>
<path d="M11.3398 26.34H12.2098V26.06V23.1H11.3398V26.34Z" fill="#3C3C3B"/>
<path d="M11.7701 21.8101C11.5301 21.8101 11.3301 22.0101 11.3301 22.2501C11.3301 22.4901 11.5201 22.6901 11.7701 22.6901C12.0101 22.6901 12.2001 22.5001 12.2001 22.2501C12.2101 22.0101 12.0201 21.8101 11.7701 21.8101Z" fill="#3C3C3B"/>
<path d="M26.3101 23.04C25.3501 23.04 24.6201 23.72 24.6201 24.72C24.6201 25.73 25.3401 26.41 26.3101 26.41C27.2701 26.41 28.0001 25.73 28.0001 24.72C28.0001 23.72 27.2701 23.04 26.3101 23.04ZM26.3101 25.66C25.8401 25.66 25.5001 25.3 25.5001 24.72C25.5001 24.14 25.8401 23.79 26.3101 23.79C26.7801 23.79 27.1201 24.14 27.1201 24.72C27.1201 25.3 26.7801 25.66 26.3101 25.66Z" fill="#3C3C3B"/>
<path d="M15.3703 26.11C15.6303 26.28 16.0303 26.37 16.4203 26.37C17.1703 26.37 17.7003 26.05 17.7003 25.35C17.7003 24.77 17.4203 24.45 16.5903 24.3C16.2903 24.23 16.1703 24.14 16.1703 23.97C16.1703 23.82 16.2903 23.7 16.5803 23.7C16.9103 23.7 17.1903 23.81 17.5003 24.01V23.24C17.2103 23.08 16.9303 23 16.5503 23C15.8603 23 15.3203 23.33 15.3203 24.03C15.3203 24.62 15.6203 24.91 16.3503 25.04C16.7103 25.11 16.8403 25.19 16.8403 25.39C16.8403 25.59 16.6603 25.67 16.3903 25.67C16.0703 25.67 15.6703 25.53 15.3603 25.31V26.11H15.3703Z" fill="#3C3C3B"/>
<path d="M18.0703 26.34H18.9403V26.06V23.1H18.0703V26.34Z" fill="#3C3C3B"/>
<path d="M18.5103 21.8101C18.2703 21.8101 18.0703 22.0101 18.0703 22.2501C18.0703 22.4901 18.2603 22.6901 18.5103 22.6901C18.7503 22.6901 18.9403 22.5001 18.9403 22.2501C18.9403 22.0101 18.7503 21.8101 18.5103 21.8101Z" fill="#3C3C3B"/>
<path d="M23.3901 24.32C23.3901 23.98 23.2401 23.81 22.9001 23.81C22.6701 23.81 22.4401 23.86 22.2901 23.93C22.3201 24 22.3601 24.11 22.3601 24.26V26.34H21.4801V24.32C21.4801 23.98 21.3201 23.81 20.9901 23.81C20.7801 23.81 20.6201 23.84 20.4501 23.89V26.34H19.5801V23.32C20.0301 23.15 20.5601 23.04 21.0301 23.04C21.4101 23.04 21.7301 23.13 21.9201 23.29C22.2101 23.16 22.5401 23.04 23.0101 23.04C23.7801 23.04 24.2601 23.34 24.2601 24.28V26.33H23.3901V24.32Z" fill="#3C3C3B"/>
<defs>
<linearGradient id="paint0_linear_356_580" x1="9.1378" y1="16.1893" x2="20.7649" y2="8.9717" gradientUnits="userSpaceOnUse">
<stop stop-color="#EB6608"/>
<stop offset="0.1895" stop-color="#EC6C08"/>
<stop offset="0.4371" stop-color="#EF7C07"/>
<stop offset="0.717" stop-color="#F49706"/>
<stop offset="1" stop-color="#FABA05"/>
</linearGradient>
</defs>
</svg>
