<svg width="24" height="24" viewBox="0 0 24 24" fill="none" xmlns="http://www.w3.org/2000/svg">
<rect x="0.25" y="0.25" width="23.5" height="23.5" rx="11.75" fill="white"/>
<rect x="0.25" y="0.25" width="23.5" height="23.5" rx="11.75" stroke="#33771F" stroke-width="0.5"/>
<path fill-rule="evenodd" clip-rule="evenodd" d="M12.0283 2.28317C11.9645 2.35547 11.6764 3.22795 11.555 3.71671C11.4563 4.11407 11.4198 4.30077 11.3796 4.61545C11.3707 4.68503 11.3521 4.74194 11.3384 4.74194C11.3246 4.74194 11.3134 4.73126 11.3134 4.71821C11.3134 4.68916 11.1186 4.60879 11.0483 4.60879C11.0203 4.60879 10.9912 4.62975 10.9837 4.65539C10.9075 4.91585 10.8888 5.52913 10.9508 5.73489C10.9711 5.80237 10.9825 5.86274 10.9762 5.86905C10.9699 5.87539 10.9007 5.84591 10.8225 5.80354C10.6766 5.72456 10.6119 5.72429 10.5805 5.80251C10.5706 5.827 10.556 5.96923 10.548 6.11854C10.5319 6.41914 10.5594 6.61057 10.6649 6.93388C10.7023 7.04833 10.7271 7.14779 10.7199 7.1549C10.7128 7.16204 10.6341 7.14329 10.5449 7.11328C10.35 7.04764 10.3119 7.04578 10.2908 7.10082C10.2222 7.27953 10.3476 7.99168 10.5067 8.32652C10.5586 8.43586 10.5961 8.53034 10.5899 8.53646C10.5838 8.54259 10.4874 8.51945 10.3758 8.48499L10.1728 8.42238L10.1634 8.55939C10.1531 8.70979 10.2384 9.13216 10.3308 9.38876C10.3625 9.47664 10.4344 9.63426 10.4906 9.73904L10.5928 9.92952L10.381 9.91501C10.2107 9.90335 10.1664 9.90809 10.1544 9.93927C10.1364 9.98611 10.2582 10.5773 10.3317 10.8001C10.3607 10.888 10.4436 11.0826 10.516 11.2326C10.5883 11.3825 10.6475 11.5084 10.6476 11.5122C10.6476 11.516 10.5637 11.5151 10.4611 11.5103C10.2948 11.5024 10.2746 11.5067 10.2746 11.5502C10.2747 11.5771 10.3335 11.7437 10.4053 11.9207C10.4772 12.0976 10.6818 12.6907 10.86 13.2388C11.0382 13.7869 11.2199 14.3432 11.2638 14.475C11.4108 14.9164 11.6249 15.7302 11.6005 15.7546C11.5699 15.7852 10.9118 14.3147 10.5631 13.4364C10.331 12.8518 10.3082 12.7996 10.2809 12.7905C10.2672 12.786 10.2232 12.8555 10.183 12.9449C10.1428 13.0344 10.1048 13.1025 10.0985 13.0962C10.0922 13.0898 10.0702 12.9888 10.0495 12.8715C9.98167 12.4856 9.80657 12.0018 9.61477 11.6704L9.54821 11.5553L9.44309 11.6571C9.38529 11.713 9.3207 11.7917 9.29955 11.832C9.24303 11.9397 9.2092 11.9215 9.2092 11.7834C9.2092 11.7165 9.17929 11.5726 9.14272 11.4637C9.06287 11.2258 8.82139 10.7391 8.70239 10.5761L8.61654 10.4585L8.5519 10.5627C8.51634 10.62 8.46858 10.7119 8.44581 10.7668C8.42301 10.8218 8.39496 10.8667 8.38348 10.8667C8.372 10.8667 8.34148 10.7805 8.31564 10.675C8.24653 10.393 8.11889 10.1388 7.8755 9.79829C7.75639 9.63162 7.65325 9.48939 7.64633 9.48218C7.6287 9.46386 7.5807 9.55016 7.51598 9.71654C7.48564 9.79451 7.45184 9.85794 7.44086 9.85747C7.42989 9.85699 7.36852 9.74892 7.30447 9.61735C7.16703 9.33502 6.93807 9.00027 6.75128 8.80856L6.61757 8.67131L6.55746 8.80369C6.5244 8.87649 6.48674 8.96448 6.47374 8.99923C6.45201 9.05731 6.43978 9.04447 6.32168 8.83945C6.22763 8.67624 6.12495 8.55052 5.9384 8.37019C5.79825 8.2347 5.67077 8.12416 5.65516 8.12453C5.61622 8.12541 5.53355 8.2977 5.53355 8.37794C5.53355 8.44962 5.49524 8.4648 5.46163 8.40643C5.4331 8.35693 5.00657 8.00603 4.76813 7.83592C4.53148 7.66712 4.00168 7.34778 3.68363 7.18228C3.46913 7.07065 3.44101 7.06226 3.4042 7.09906C3.36741 7.13586 3.36896 7.1553 3.41972 7.29239C3.45078 7.37622 3.53836 7.58263 3.61435 7.75106C4.01385 8.63638 4.25807 9.11086 4.43026 9.33644C4.48039 9.40208 4.52136 9.46468 4.5213 9.47555C4.52122 9.48638 4.44936 9.52524 4.3616 9.56185C4.27383 9.59847 4.20197 9.64363 4.20189 9.66219C4.20173 9.71505 4.5318 10.2018 4.65176 10.3257C4.71113 10.387 4.81397 10.4744 4.88026 10.52C4.94659 10.5656 5.00023 10.6114 4.99951 10.6216C4.99876 10.6319 4.92685 10.6741 4.8397 10.7154C4.74091 10.7622 4.68122 10.807 4.68122 10.8342C4.68122 10.8583 4.80718 11.0007 4.9611 11.1508C5.19531 11.3791 5.27894 11.4419 5.47343 11.5355L5.70585 11.6475L5.58642 11.696C5.41347 11.7661 5.3394 11.808 5.32816 11.842C5.286 11.9695 6.11646 12.5866 6.51878 12.7267L6.61176 12.7591L6.39016 12.8358C6.13497 12.9241 6.12213 12.9327 6.1782 12.9773C6.72177 13.4099 7.19974 13.6974 7.4715 13.7552C7.56919 13.7759 7.5656 13.8081 7.46271 13.834C7.42475 13.8435 7.34623 13.8827 7.28822 13.9211L7.18274 13.9908L7.2704 14.0817C7.35481 14.1692 7.6629 14.3678 7.89651 14.4852C7.95828 14.5163 8.12009 14.5731 8.25609 14.6116C8.39209 14.65 8.51298 14.6901 8.52473 14.7007C8.5365 14.7114 8.47356 14.7355 8.3849 14.7543C8.29625 14.7731 8.22418 14.7958 8.22479 14.8048C8.22695 14.8371 8.59135 15.0449 9.00944 15.2523C9.69348 15.5915 10.916 16.3206 10.842 16.3452C10.7851 16.3642 10.3851 16.1974 9.50728 15.7888C8.40335 15.275 8.13173 15.1654 8.06495 15.2066C8.0397 15.2222 8.04191 15.2456 8.0747 15.3089C8.14707 15.4489 8.12323 15.4494 7.94155 15.3119C7.73375 15.1547 7.58443 15.0761 7.28755 14.9678C7.06712 14.8873 6.89194 14.864 6.89194 14.9152C6.89194 14.9303 6.91008 14.9861 6.93224 15.0391C6.97866 15.1502 6.96596 15.181 6.89876 15.1203C6.76359 14.9981 6.14956 14.7663 5.83319 14.718L5.71999 14.7007V14.796C5.71999 14.8484 5.73294 14.9154 5.74878 14.945C5.76463 14.9746 5.77308 15.0033 5.76759 15.0088C5.7621 15.0143 5.65026 14.9845 5.51906 14.9426C5.3023 14.8734 4.85115 14.7812 4.72927 14.7812C4.67864 14.7812 4.67816 14.7976 4.72269 15.0009L4.73873 15.0741H4.25642C3.83244 15.0741 3.03184 15.1332 2.97436 15.1687C2.96298 15.1757 2.86052 15.1933 2.74668 15.2077C2.49159 15.2401 2.45558 15.2695 2.56372 15.3575C2.6872 15.4579 3.97113 16.0742 4.22698 16.1559C4.3523 16.1959 4.45914 16.2318 4.46438 16.2357C4.46966 16.2396 4.44896 16.2778 4.41844 16.3207C4.38791 16.3636 4.35081 16.4305 4.33597 16.4695C4.31176 16.5332 4.31642 16.5432 4.38192 16.5686C4.55217 16.6345 5.02809 16.7247 5.20726 16.7249C5.31349 16.725 5.40037 16.7327 5.40037 16.742C5.40037 16.7512 5.37557 16.7989 5.34529 16.8479C5.3145 16.8977 5.29394 16.9694 5.29868 17.0102C5.30605 17.074 5.32268 17.0863 5.42701 17.1057C5.60741 17.1392 6.22156 17.1358 6.36944 17.1005C6.44095 17.0835 6.50443 17.0745 6.51047 17.0805C6.51652 17.0866 6.48498 17.1534 6.44034 17.2291C6.34105 17.3974 6.33913 17.4381 6.42929 17.4607C6.57978 17.4985 7.11088 17.4503 7.35806 17.3765C7.4899 17.3371 7.61993 17.2986 7.64702 17.2909C7.69305 17.2777 7.69371 17.2818 7.6569 17.3538C7.63522 17.3962 7.60912 17.4698 7.59886 17.5174C7.58075 17.6014 7.58278 17.6039 7.66892 17.6038C7.95522 17.6036 8.34593 17.5248 8.70313 17.3952C8.72511 17.3872 8.70412 17.4254 8.65652 17.4799C8.50491 17.6537 8.53184 17.6622 8.92953 17.5662C9.30844 17.4747 10.0992 17.3442 10.4744 17.3113C10.6502 17.2959 10.8329 17.2783 10.8806 17.2722C11.1928 17.2321 10.6513 17.4093 9.74726 17.6431C8.92106 17.8567 8.80512 17.8999 8.96991 17.9329C9.04707 17.9483 9.08311 18.0033 9.0161 18.0034C8.89869 18.0035 8.24077 18.4087 8.2595 18.4694C8.264 18.484 8.31173 18.5071 8.36556 18.5207C8.41939 18.5342 8.46342 18.5538 8.46342 18.5641C8.46342 18.5744 8.4065 18.5971 8.3369 18.6144C8.2673 18.6317 8.17024 18.6694 8.12118 18.6981C8.00388 18.7667 7.7453 18.9954 7.75931 19.0181C7.76536 19.0279 7.8124 19.0438 7.86383 19.0534C7.91526 19.063 7.95729 19.0734 7.95724 19.0764C7.95716 19.0794 7.82196 19.2197 7.6568 19.3881C7.38269 19.6676 6.8653 20.3122 6.8653 20.3742C6.8653 20.3884 6.88366 20.4 6.90608 20.4C6.99377 20.4 8.16963 20.0153 8.38053 19.9176C8.50342 19.8607 8.60831 19.8142 8.61359 19.8142C8.61889 19.8142 8.62323 19.8681 8.62323 19.934C8.62323 19.9999 8.62911 20.0538 8.63631 20.0538C8.66904 20.0538 9.04888 19.8752 9.16227 19.8066C9.23165 19.7645 9.31337 19.6951 9.34387 19.6523C9.41634 19.5505 9.44892 19.5539 9.44892 19.6632C9.44892 19.7121 9.45598 19.7591 9.46461 19.7677C9.47324 19.7763 9.57812 19.7216 9.69766 19.646C9.90987 19.5119 10.1674 19.2819 10.2548 19.1484L10.2984 19.0818L10.2999 19.1837C10.3008 19.2515 10.3124 19.2826 10.3345 19.2769C10.3757 19.2662 10.9879 18.6335 11.2692 18.3109C11.3835 18.1798 11.5451 17.969 11.6282 17.8426C11.7114 17.7161 11.7948 17.5897 11.8135 17.5617L12.0858 17.2788L12.3388 17.491L12.4639 17.6873C12.5327 17.7952 12.656 17.9674 12.7378 18.0699C12.9704 18.3613 13.8479 19.2821 13.8763 19.2646C13.8903 19.2559 13.8942 19.2083 13.8848 19.1587C13.8643 19.0493 13.9052 19.0397 13.9484 19.1439C13.9656 19.1853 14.0539 19.2917 14.1447 19.3803C14.3135 19.545 14.6636 19.7943 14.6971 19.7736C14.7073 19.7673 14.7239 19.711 14.7338 19.6487L14.752 19.5353L14.8045 19.6182C14.873 19.7265 15.0022 19.8134 15.2913 19.9458C15.421 20.0052 15.5318 20.0538 15.5377 20.0538C15.5436 20.0538 15.5484 19.9999 15.5484 19.934C15.5484 19.8681 15.554 19.8142 15.5609 19.8142C15.5678 19.8142 15.6427 19.8452 15.7274 19.8831C16.2354 20.1105 17.2566 20.4337 17.3074 20.3829C17.3463 20.344 16.8412 19.6954 16.5015 19.3481C16.3583 19.2017 16.2411 19.0799 16.241 19.0775C16.2409 19.0752 16.2888 19.0651 16.3474 19.0552C16.406 19.0453 16.454 19.0265 16.454 19.0135C16.454 18.979 16.2228 18.7701 16.1248 18.7162C16.0788 18.6909 15.9781 18.651 15.9009 18.6277C15.7694 18.5878 15.7338 18.5359 15.8378 18.5359C15.8635 18.5359 15.9066 18.5198 15.9337 18.4999C15.9795 18.4664 15.9731 18.4562 15.8405 18.3514C15.6909 18.2331 15.5263 18.1418 15.282 18.0412C15.1333 17.98 15.1331 17.9775 15.2754 17.9351C15.3986 17.8983 15.1644 17.8188 14.1367 17.5482C13.2598 17.3173 13.2045 17.3013 13.2045 17.2788C13.2045 17.2678 13.2554 17.2641 13.3177 17.2707C13.3799 17.2773 13.5328 17.2895 13.6573 17.2978C14.0666 17.3252 14.7982 17.4494 15.2421 17.567C15.6089 17.664 15.6615 17.6524 15.5351 17.5022C15.4984 17.4587 15.4685 17.4173 15.4685 17.4101C15.4685 17.4029 15.5396 17.4258 15.6265 17.4609C15.8244 17.5408 15.9921 17.5729 16.3253 17.5948C16.5822 17.6116 16.5871 17.6108 16.5871 17.5536C16.5871 17.5215 16.5629 17.4478 16.5333 17.3898C16.5037 17.3318 16.4888 17.2844 16.5 17.2844C16.5113 17.2844 16.5813 17.3075 16.6556 17.3357C16.8598 17.4133 17.2049 17.4708 17.4669 17.4708C17.8206 17.4708 17.8379 17.4539 17.7148 17.2279C17.6758 17.1563 17.6495 17.0921 17.6564 17.0852C17.6633 17.0784 17.7161 17.0861 17.7739 17.1024C17.921 17.1439 18.5649 17.143 18.7541 17.101C18.9098 17.0664 18.9101 17.0662 18.8936 16.9823C18.8845 16.9361 18.8532 16.8658 18.8241 16.8261C18.795 16.7864 18.7712 16.7475 18.7712 16.7395C18.7712 16.7316 18.8544 16.7251 18.9559 16.7251C19.2384 16.7251 19.8279 16.5925 19.8546 16.5228C19.8615 16.505 19.8362 16.4416 19.7986 16.382C19.7609 16.3223 19.7301 16.2636 19.7301 16.2516C19.7301 16.2395 19.817 16.2018 19.9232 16.1678C20.1425 16.0975 20.486 15.9393 21.1901 15.5843C21.83 15.2617 21.8304 15.2688 21.1684 15.1695C20.7054 15.1 20.3601 15.0741 19.8976 15.0741C19.4896 15.0741 19.4594 15.0708 19.4769 15.0275C19.4872 15.0019 19.5021 14.9356 19.51 14.8802L19.5243 14.7794L19.4074 14.7961C19.1 14.8399 18.8337 14.8968 18.6599 14.9559C18.5548 14.9917 18.4649 15.0209 18.46 15.0209C18.4551 15.0209 18.4542 14.952 18.458 14.8678C18.4661 14.6884 18.486 14.6928 18.092 14.7864C17.801 14.8556 17.549 14.9566 17.3493 15.0844C17.267 15.1369 17.1998 15.1696 17.1998 15.157C17.1998 15.1444 17.2177 15.0831 17.2397 15.0209C17.2617 14.9586 17.2797 14.9032 17.2797 14.8977C17.2797 14.8637 17.0975 14.9005 16.8781 14.9789C16.5999 15.0783 16.4052 15.1837 16.2041 15.3436C16.0456 15.4696 16.0119 15.4743 16.0814 15.3604C16.1595 15.2322 16.1524 15.1751 16.0611 15.198C15.8904 15.2407 15.1058 15.586 14.2832 15.9804C13.835 16.1953 13.4277 16.3601 13.3824 16.3451C13.3027 16.3185 14.3634 15.6732 15.1021 15.2989C15.6293 15.0318 15.9479 14.8467 15.9479 14.8074C15.9479 14.7951 15.8816 14.7702 15.8005 14.752C15.7195 14.7339 15.6625 14.7108 15.674 14.7007C15.6855 14.6906 15.8027 14.6495 15.9346 14.6094C16.0664 14.5692 16.2762 14.4838 16.4007 14.4196C16.6309 14.3009 16.9851 14.0441 16.9852 13.9956C16.9853 13.981 16.8999 13.9278 16.7954 13.8774L16.6055 13.7858L16.7806 13.7268C17.0247 13.6445 17.3322 13.4784 17.6026 13.283C17.8258 13.1216 18.0254 12.957 18.0254 12.9342C18.0254 12.928 17.9296 12.8889 17.8124 12.8473C17.6952 12.8057 17.5993 12.7648 17.5993 12.7564C17.5993 12.7481 17.6802 12.715 17.7791 12.6829C17.8922 12.6461 18.0527 12.5594 18.2119 12.4489C18.4869 12.258 18.8514 11.9178 18.8507 11.8526C18.8503 11.8142 18.6119 11.6917 18.5382 11.692C18.454 11.6924 18.5223 11.6308 18.7113 11.5357C18.8248 11.4786 18.9956 11.3639 19.0909 11.2808C19.2987 11.0995 19.5163 10.8652 19.5167 10.8225C19.517 10.7901 19.2655 10.6537 19.2055 10.6537C19.1483 10.6537 19.166 10.6147 19.244 10.5686C19.3886 10.4832 19.687 10.152 19.8271 9.92127C19.9056 9.79196 19.9698 9.67258 19.9698 9.65596C19.9698 9.62286 19.7524 9.50859 19.6894 9.50859C19.6349 9.50859 19.6399 9.48851 19.7176 9.3963C19.8211 9.27332 20.1243 8.75229 20.2567 8.47005C20.5633 7.81635 20.8239 7.20393 20.8167 7.15389C20.8006 7.04136 20.6975 7.07406 20.2276 7.34075C19.5483 7.72624 19.1685 7.9896 18.7811 8.34369L18.6712 8.44419L18.6426 8.33064C18.6268 8.26817 18.5968 8.19377 18.5759 8.16528C18.5393 8.11532 18.5333 8.1174 18.4049 8.22485C18.1838 8.40995 17.9551 8.67075 17.8378 8.87149L17.7269 9.06135L17.6678 8.88584C17.6353 8.78928 17.6003 8.70188 17.59 8.69158C17.556 8.65757 17.2781 8.95859 17.1063 9.21567C16.9414 9.46223 16.7736 9.7812 16.7736 9.84812C16.7736 9.93362 16.7215 9.86612 16.6796 9.72621C16.654 9.64083 16.6159 9.54798 16.595 9.51983C16.5582 9.47038 16.5547 9.47137 16.4919 9.54854C16.3809 9.68496 16.092 10.1271 16.0135 10.2808C15.9724 10.3614 15.9066 10.5292 15.8673 10.6537L15.796 10.88L15.7282 10.7466C15.691 10.6732 15.6352 10.5834 15.6043 10.5469L15.5482 10.4806L15.4864 10.555C15.4524 10.596 15.3324 10.8176 15.2197 11.0476C15.0553 11.3832 15.0085 11.5066 14.9826 11.6722C14.9649 11.7857 14.9425 11.8786 14.9328 11.8786C14.9232 11.8786 14.8966 11.8516 14.8738 11.8187C14.8002 11.7124 14.6766 11.5857 14.6464 11.5857C14.6079 11.5857 14.4046 12.0113 14.284 12.3442C14.2315 12.4893 14.1712 12.7152 14.15 12.8462C14.1131 13.0741 14.0878 13.1479 14.0662 13.0902C14.0201 12.9671 13.929 12.8239 13.8966 12.8239C13.8703 12.8239 13.7945 12.9793 13.6695 13.29C13.3874 13.991 13.3345 14.1161 12.9599 14.9676C12.6538 15.6634 12.5252 15.9256 12.5745 15.7532C12.5828 15.7239 12.6094 15.61 12.6335 15.5002C12.7158 15.125 12.8873 14.5286 13.0976 13.8869C13.2132 13.5342 13.3382 13.1268 13.3752 12.9815C13.4451 12.7075 13.6203 12.1928 13.7788 11.7954C13.8291 11.6691 13.8704 11.5513 13.8704 11.5336C13.8704 11.5107 13.8167 11.504 13.6839 11.5103C13.5813 11.5151 13.4974 11.5138 13.4974 11.5073C13.4974 11.5009 13.5439 11.417 13.6006 11.3209C13.6573 11.2249 13.7127 11.1163 13.7237 11.0797C13.7346 11.0431 13.7712 10.9467 13.805 10.8655C13.8692 10.7113 14.0035 10.111 14.0035 9.97866V9.9022L13.8038 9.91229C13.6939 9.91783 13.604 9.91163 13.604 9.89847C13.604 9.88532 13.6391 9.81321 13.682 9.73819C13.8599 9.42743 14.0302 8.84888 14.0302 8.55545V8.43873L13.9173 8.4578C13.8553 8.46829 13.7594 8.49276 13.7042 8.51223C13.5768 8.55718 13.5736 8.52866 13.6826 8.31291C13.8073 8.06579 13.8981 7.66978 13.9032 7.34994C13.9058 7.18904 13.8967 7.07193 13.8813 7.06679C13.8669 7.06197 13.7666 7.08812 13.6584 7.12487C13.5503 7.16164 13.457 7.18683 13.451 7.18087C13.445 7.1749 13.48 7.05811 13.5287 6.92131C13.6152 6.67845 13.6173 6.66234 13.6173 6.24082C13.6173 5.86258 13.6115 5.80322 13.57 5.76171C13.5246 5.71628 13.5165 5.71748 13.3761 5.791C13.2955 5.83318 13.2251 5.86306 13.2197 5.85739C13.2142 5.85169 13.2271 5.75718 13.2484 5.64734C13.2956 5.40365 13.2552 4.85892 13.175 4.65787C13.1498 4.59457 13.1384 4.58956 13.0666 4.61015C13.0224 4.6228 12.9463 4.65678 12.8973 4.68564L12.8084 4.73813L12.7944 4.66682C12.7868 4.62757 12.767 4.49961 12.7505 4.38244C12.6703 3.81438 12.2653 2.45978 12.1281 2.30019C12.0735 2.23678 12.0698 2.23614 12.0283 2.28317ZM11.9776 9.74826C12.0038 7.92713 12.0424 6.42979 12.0778 5.86037C12.1065 5.39827 12.1335 5.7134 12.1777 7.02623C12.2084 7.93373 12.2212 9.11142 12.2227 11.1463C12.2248 14.0676 12.1915 15.8671 12.1276 16.2725C12.108 16.3969 12.0892 16.4928 12.0858 16.4855C12.0824 16.4782 12.0631 16.3703 12.0428 16.2458C11.9822 15.8729 11.9441 12.0793 11.9776 9.74826ZM8.31599 12.8623C6.93131 11.264 5.83945 9.97376 5.48371 9.51525C5.23158 9.19032 5.64944 9.59269 6.33492 10.335C6.49002 10.5029 7.13046 11.2275 7.75809 11.9452C9.09297 13.4715 10.1734 14.6991 10.383 14.9274C10.5167 15.0732 11.6429 16.4735 11.6976 16.5621C11.8552 16.8174 10.1366 14.9732 9.16784 13.8476C9.02212 13.6782 8.63878 13.2348 8.31599 12.8623ZM17.0533 11.212C17.603 10.5722 17.9233 10.2194 18.3148 9.82239C18.4985 9.63617 18.6541 9.4891 18.6605 9.49555C18.6612 9.49625 18.662 9.49686 18.6626 9.49743C18.6632 9.49793 18.6638 9.49841 18.6643 9.49891C18.6647 9.49932 18.6651 9.49974 18.6654 9.50021C18.6726 9.51109 18.6456 9.54451 18.3351 9.92924C18.3168 9.95199 18.2974 9.97596 18.277 10.0012C17.7412 10.6653 16.8327 11.7565 16.0265 12.7041C14.4693 14.5347 12.512 16.6883 12.512 16.5712C12.512 16.5267 13.5067 15.289 13.9506 14.7812C14.149 14.5542 14.5802 14.0569 14.9087 13.6761C15.5568 12.9248 16.104 12.2966 16.4403 11.9176C16.5577 11.7853 16.8335 11.4678 17.0533 11.212ZM13.7239 16.6752C16.4374 16.1555 17.9442 15.8954 18.6514 15.8248C18.9753 15.7925 19.1735 15.79 19.1042 15.8191C18.9296 15.8923 17.7707 16.1312 16.0012 16.4586C14.4757 16.7409 12.5977 17.0033 12.6781 16.923C12.6993 16.9018 13.3689 16.7432 13.7239 16.6752ZM11.0253 16.8835C9.44791 16.7102 6.69508 16.2348 5.48028 15.9258C5.15109 15.8421 5.09982 15.8235 5.22724 15.8338C6.19234 15.9121 6.87591 16.015 8.95007 16.3945C9.55405 16.5051 10.252 16.6304 10.501 16.673C10.9828 16.7554 11.655 16.898 11.6801 16.9231C11.7068 16.9498 11.5338 16.9394 11.0253 16.8835ZM14.0487 18.282C13.1505 17.6862 12.8345 17.4668 12.8328 17.4379C12.8278 17.3553 13.8025 17.9276 14.5312 18.4352C14.9511 18.7275 15.6917 19.3069 15.6714 19.3272C15.6573 19.3414 15.2536 19.0814 14.0487 18.282ZM9.86176 18.3354C10.4487 17.949 10.72 17.7842 11.1003 17.5828C11.3625 17.4439 11.4078 17.4258 11.3801 17.4706C11.3104 17.5834 8.59201 19.3657 8.55153 19.3253C8.52476 19.2985 9.37847 18.6535 9.86176 18.3354Z" fill="#33771F"/>
</svg>
